<svg width="30" height="30" viewBox="0 0 30 30" fill="none" xmlns="http://www.w3.org/2000/svg">
<path d="M15 30C23.2843 30 30 23.2843 30 15C30 6.71573 23.2843 0 15 0C6.71573 0 0 6.71573 0 15C0 23.2843 6.71573 30 15 30Z" fill="#14468C"/>
<path d="M21.6 9.5H8.4C7.6 9.5 7 10.1 7 10.9V19.1C7 19.9 7.6 20.5 8.4 20.5H21.5C22.3 20.5 22.9 19.9 22.9 19.1V10.9C23 10.1 22.4 9.5 21.6 9.5Z" fill="white"/>
<path d="M15 17.3L23 11.2V11C23 10.2 22.4 9.6 21.6 9.6H21.3L15.2 14.7L8.9 9.5H8.4C7.6 9.5 7 10.1 7 10.9V19.1C7 19.9 7.6 20.5 8.4 20.5H9V12.5L15 17.3Z" fill="#DD4B40"/>
<path d="M23.0008 19.1V11.2L20.8008 12.9V20.6H21.5008C22.4008 20.5 23.0008 19.9 23.0008 19.1Z" fill="#A43026"/>
</svg>
